<?xml version="1.0" encoding="UTF-8" standalone="no"?>
<!-- Created with Inkscape (http://www.inkscape.org/) -->

<svg
   width="128"
   height="128"
   viewBox="0 0 33.866667 33.866667"
   version="1.1"
   id="svg5"
   inkscape:version="1.2.2 (b0a8486541, 2022-12-01)"
   sodipodi:docname="ornate_big_arrow_decor.svg"
   inkscape:export-filename="ornate_big_arrow_decor.png"
   inkscape:export-xdpi="96.692383"
   inkscape:export-ydpi="96.692383"
   xmlns:inkscape="http://www.inkscape.org/namespaces/inkscape"
   xmlns:sodipodi="http://sodipodi.sourceforge.net/DTD/sodipodi-0.dtd"
   xmlns="http://www.w3.org/2000/svg"
   xmlns:svg="http://www.w3.org/2000/svg">
  <sodipodi:namedview
     id="namedview7"
     pagecolor="#ffffff"
     bordercolor="#666666"
     borderopacity="1.0"
     inkscape:showpageshadow="2"
     inkscape:pageopacity="0"
     inkscape:pagecheckerboard="0"
     inkscape:deskcolor="#d1d1d1"
     inkscape:document-units="mm"
     showgrid="false"
     inkscape:zoom="4.1640625"
     inkscape:cx="67.722326"
     inkscape:cy="64.4803"
     inkscape:window-width="1366"
     inkscape:window-height="736"
     inkscape:window-x="0"
     inkscape:window-y="0"
     inkscape:window-maximized="1"
     inkscape:current-layer="layer1">
    <inkscape:grid
       type="xygrid"
       id="grid584" />
  </sodipodi:namedview>
  <defs
     id="defs2" />
  <g
     inkscape:label="Layer 1"
     inkscape:groupmode="layer"
     id="layer1">
    <path
       style="fill:#e6e6e6;stroke:#000000;stroke-width:0.396875;stroke-linecap:butt;stroke-linejoin:miter;stroke-dasharray:none;stroke-opacity:1"
       d="m 15.874999,13.869518 c -0.681633,2.052087 -2.995229,3.063815 -2.995229,3.063815 0,0 2.313596,1.011729 2.995229,3.063814 0.681633,-2.052085 2.995229,-3.063814 2.995229,-3.063814 0,0 -2.313596,-1.011728 -2.995229,-3.063815 z"
       id="path495"
       sodipodi:nodetypes="ccccc" />
    <path
       style="fill:#e6e6e6;stroke:#000000;stroke-width:0.29104167;stroke-linecap:butt;stroke-linejoin:miter;stroke-dasharray:none;stroke-opacity:1"
       d="m 9.350299,14.890791 c -0.4544217,1.368057 -1.9968178,2.042543 -1.9968178,2.042543 0,0 1.5423961,0.674486 1.9968178,2.042543 0.454422,-1.368057 1.996818,-2.042543 1.996818,-2.042543 0,0 -1.542396,-0.674486 -1.996818,-2.042543 z"
       id="path1140"
       sodipodi:nodetypes="ccccc" />
    <path
       style="fill:#e6e6e6;stroke:#000000;stroke-width:0.132292;stroke-linecap:butt;stroke-linejoin:miter;stroke-dasharray:none;stroke-opacity:1"
       d="m 4.7624961,15.912062 c -0.2272113,0.684028 -0.9984093,1.021271 -0.9984093,1.021271 0,0 0.771198,0.337243 0.9984093,1.021272 0.227211,-0.684029 0.9984087,-1.021272 0.9984087,-1.021272 0,0 -0.7711977,-0.337243 -0.9984087,-1.021271 z"
       id="path1142"
       sodipodi:nodetypes="ccccc" />
    <path
       style="fill:#e6e6e6;stroke:#000000;stroke-width:0.17197917;stroke-linecap:butt;stroke-linejoin:miter;stroke-dasharray:none;stroke-opacity:1"
       d="m 2.1166624,16.422698 c -0.1136056,0.342014 -0.4992046,0.510635 -0.4992046,0.510635 0,0 0.385599,0.168622 0.4992046,0.510636 0.1136055,-0.342014 0.4992044,-0.510636 0.4992044,-0.510636 0,0 -0.3855989,-0.168621 -0.4992044,-0.510635 z"
       id="path1144"
       sodipodi:nodetypes="ccccc" />
    <path
       style="fill:#be901c;fill-opacity:1;stroke:#58420d;stroke-width:0.66145833;stroke-linecap:butt;stroke-linejoin:round;stroke-dasharray:none;stroke-opacity:1"
       d="m 31.268895,16.933331 c 0,0 -7.29089,-3.593664 -12.302024,-12.71485 2.013731,9.441204 4.89369,12.71485 4.89369,12.71485 0,0 -3.221297,4.447132 -4.89369,12.714855 4.665724,-8.193488 12.302024,-12.714855 12.302024,-12.714855 z"
       id="path3380"
       sodipodi:nodetypes="ccccc" />
    <path
       style="fill:#00c3c3;stroke:#c5c1c1;stroke-width:0.26458333;stroke-linecap:butt;stroke-linejoin:miter;stroke-dasharray:none;stroke-opacity:1;fill-opacity:1"
       d="m 22.966264,14.89079 c -0.454422,1.368057 -1.996818,2.042543 -1.996818,2.042543 0,0 1.542396,0.674486 1.996818,2.042543 0.454422,-1.368057 1.996818,-2.042543 1.996818,-2.042543 0,0 -1.542396,-0.674486 -1.996818,-2.042543 z"
       id="path1140-5"
       sodipodi:nodetypes="ccccc" />
    <path
       style="fill:#e6e6e6;stroke:#000000;stroke-width:0.238125;stroke-linecap:butt;stroke-linejoin:miter;stroke-dasharray:none;stroke-opacity:1"
       d="m 4.7624961,15.912062 c -0.2272113,0.684028 -0.9984093,1.021271 -0.9984093,1.021271 0,0 0.771198,0.337243 0.9984093,1.021272 0.227211,-0.684029 0.9984087,-1.021272 0.9984087,-1.021272 0,0 -0.7711977,-0.337243 -0.9984087,-1.021271 z"
       id="path3431"
       sodipodi:nodetypes="ccccc" />
  </g>
</svg>
