<?xml version="1.0" encoding="UTF-8"?>
<svg
   xmlns="http://www.w3.org/2000/svg"
   xmlns:sodipodi="http://sodipodi.sourceforge.net/DTD/sodipodi-0.dtd"
   viewBox="0 0 72 72"
   version="1.1" >
  <sodipodi:namedview
     pagecolor="#888888"
     bordercolor="#666666"
     showgrid="false" />
  <title>HighContrast icon using paint-order</title>
  <path
     style="fill:#000000;stroke:#ffffff;stroke-width:3;paint-order:stroke fill markers;stroke-linecap:round"
     d="m 52.3717,49.36 a 35.0359,35.0359 0 0 1 -1.647,3.31 L 57.1736,58.998 61.8259,61.3 59.5808,56.7062 52.3717,49.36 M 7.2263,3.0737 l -0.3,0.1094 a 5.1883,5.1883 0 0 0 -3.218,3.2183 l -0.1094,0.3 1.5029,1.5027 1.3159,0.3745 4.8633,4.8638 -0.0991,0.1113 a 17.0916,17.0916 0 0 0 -3.17,4.352 1.5174,1.5174 0 0 0 -0.0855,0.9742 2.4869,2.4869 0 0 0 0.4893,1.2085 4.1675,4.1675 0 0 0 2.1665,1.186 l 0.9243,0.23 -0.3359,-0.8911 a 2.5236,2.5236 0 0 1 0.3012,-2.895 7.9015,7.9015 0 0 1 1.6573,-1.939 l 2.6229,2.5738 q 0.0039,-0.3645 0.0085,-0.7338 l 0.0182,-1.4479 1.4477,-0.0328 q 1.192,-0.0278 2.3924,-0.1569 L 16.3043,12.604 a 7.8244,7.8244 0 0 1 1.9176,-1.644 2.9535,2.9535 0 0 1 1.5851,-0.63 3.8721,3.8721 0 0 1 1.3309,0.3146 l 0.8174,0.2818 -0.1543,-0.8653 A 4.1775,4.1775 0 0 0 20.6135,7.89 2.4855,2.4855 0 0 0 19.4045,7.4013 1.51,1.51 0 0 0 19.0408,7.3568 a 1.484,1.484 0 0 0 -0.61,0.13 17.0842,17.0842 0 0 0 -4.3515,3.1694 L 13.9679,10.7553 9.1042,5.8926 8.7293,4.5762 7.2263,3.0737"
     id="leftdword-visible-part" />
  <path
     style="fill:#000000;stroke:#ffffff;stroke-width:3;paint-order:stroke fill markers;stroke-linecap:round" 
     d="M 19.6277,49.36 12.4758,56.6484 10.1741,61.3 14.7683,59.0549 21.274,52.671 A 34.6837,34.6837 0 0 1 19.6277,49.36 M 64.7732,3.0737 63.27,4.5762 62.895,5.8926 58.032,10.7558 57.9207,10.6572 a 17.0682,17.0682 0 0 0 -4.3516,-3.17 1.4848,1.4848 0 0 0 -0.61,-0.1291 1.5665,1.5665 0 0 0 -0.3646,0.0432 2.486,2.486 0 0 0 -1.209,0.4892 4.1663,4.1663 0 0 0 -1.1855,2.1656 l -0.2314,0.9253 0.8926,-0.3364 a 3.8971,3.8971 0 0 1 1.3346,-0.3147 2.8984,2.8984 0 0 1 1.5609,0.6165 7.903,7.903 0 0 1 1.9385,1.6567 l -3.3144,3.3777 q 1.2007,0.13 2.3923,0.1569 l 1.4477,0.0328 0.0182,1.4479 q 0.0046,0.37 0.0085,0.7343 l 2.6234,-2.5743 a 7.82,7.82 0 0 1 1.6426,1.918 2.54,2.54 0 0 1 0.3155,2.916 l -0.2823,0.8174 0.8662,-0.1543 a 4.1723,4.1723 0 0 0 2.1709,-1.1875 2.4606,2.4606 0 0 0 0.4883,-1.2071 1.5086,1.5086 0 0 0 -0.0849,-0.976 17.0628,17.0628 0 0 0 -3.1661,-4.3472 l -0.1025,-0.1157 4.8633,-4.8638 1.3164,-0.3745 1.5029,-1.5029 -0.1094,-0.3 A 5.1891,5.1891 0 0 0 65.073,3.1831 l -0.3,-0.1094"
     id="rightsword-visible-part" />
  <path
     style="fill:#000000;stroke:#ffffff;stroke-width:3;paint-order:stroke fill markers;stroke-linecap:round"
     d="M 21.7966,18.2006 A 37.4937,37.4937 0 0 0 36,12.36 a 37.4914,37.4914 0 0 0 14.2031,5.8408 30.8091,30.8091 0 0 0 3.5469,0.4 q 0.011,1.1182 0.0138,2.19 9e-4,0.35 9e-4,0.6948 c 0.0017,12.1423 -0.8585,19.7827 -3.2951,25.936 q -0.1846,0.4663 -0.3814,0.9216 c -0.3708,0.8586 -0.7749,1.6923 -1.2151,2.51 A 39.5688,39.5688 0 0 1 44.487,57.2673 107.4762,107.4762 0 0 1 36,66.1587 107.4623,107.4623 0 0 1 27.5129,57.2666 39.7155,39.7155 0 0 1 23.1267,50.8536 32.0485,32.0485 0 0 1 21.53,47.4205 35.875,35.875 0 0 1 20.1853,43.2753 c -1.4186,-5.4447 -1.952,-12.2287 -1.9507,-21.79 q 0,-0.3453 9e-4,-0.6953 0.0027,-1.0714 0.0138,-2.1893 a 30.8334,30.8334 0 0 0 3.5469,-0.4 M 36,9.9535 35.4413,10.3298 A 35.0415,35.0415 0 0 1 20.063,16.4336 q -1.4187,0.173 -2.825,0.2043 l -0.9651,0.0219 -0.0121,0.9653 q -0.0078,0.6135 -0.0132,1.2135 -0.0123,1.3566 -0.0124,2.6465 c 0.0018,12.7323 0.9213,20.7852 3.7711,27.4888 0.023,0.054 0.0459,0.1076 0.0691,0.1614 a 34.2012,34.2012 0 0 0 1.5691,3.1727 42.2738,42.2738 0 0 0 4.3245,6.23 115.1439,115.1439 0 0 0 9.34,9.7287 l 0.6907,0.66 0.6907,-0.66 a 115.1571,115.1571 0 0 0 9.34,-9.7287 42.0855,42.0855 0 0 0 4.3245,-6.2309 34.4134,34.4134 0 0 0 1.6381,-3.333 36.7185,36.7185 0 0 0 1.7561,-5.195 c 1.4876,-5.723 2.0139,-12.6623 2.0151,-22.2939 q 0,-1.29 -0.0124,-2.646 -0.0054,-0.6 -0.0132,-1.214 L 55.7265,16.6599 54.7614,16.638 q -1.407,-0.0324 -2.825,-0.2043 A 35.042,35.042 0 0 1 36.5584,10.33 L 36,9.9535"
     id="outershield" />
  <path
     style="fill:#000000;"
     d="m 36,20.7266 -8.9549,2.8225 -2.03,0.64 q -0.0233,1.6794 -0.01,3.2431 C 25.0588,33.2888 25.537,37.9994 26.78,42.071 A 26.9542,26.9542 0 0 0 28.2376,45.8385 30.047,30.047 0 0 0 36,55.6089 30.0459,30.0459 0 0 0 43.7624,45.8376 26.9724,26.9724 0 0 0 45.22,42.0709 c 1.2431,-4.0716 1.7215,-8.7821 1.7754,-14.6386 q 0.0142,-1.5657 -0.01,-3.2434 l -2.03,-0.64 L 36,20.7266"
     id="innershield" />
  <path
     style="fill:#ffffff"
     d="m 33.075229,63.704531 c -4.37141,-4.411734 -6.449402,-6.8357 -8.522834,-9.941834 -3.752637,-5.621692 -5.561571,-11.64614 -6.28034,-20.915959 -0.191079,-2.464312 -0.397427,-9.551552 -0.354449,-12.173933 l 0.03892,-2.375 0.5,-0.03027 c 5.268081,-0.318904 11.368839,-2.373075 16.354695,-5.506748 l 1.213432,-0.762656 1.153436,0.753538 c 1.3925,0.909718 5.187504,2.794572 6.881792,3.417962 3.17943,1.169826 7.239614,2.065672 9.362117,2.065672 h 0.597028 l -6.25e-4,4.71875 c -0.0024,18.007008 -2.341475,26.417037 -9.742996,35.03125 -2.656069,3.091248 -7.937814,8.499253 -8.302017,8.500476 -0.07801,2.5e-4 -1.382179,-1.251301 -2.898144,-2.78125 z m 4.828594,-10.312514 c 4.681768,-4.742226 7.113813,-9.681989 8.108458,-16.469212 0.424026,-2.893447 0.514885,-4.188042 0.59239,-8.440615 l 0.0741,-4.065617 -5.251802,-1.653134 c -2.888493,-0.909224 -5.329122,-1.653085 -5.42362,-1.653024 -0.270352,1.75e-4 -10.533211,3.254355 -10.662788,3.380992 -0.162355,0.158673 0.124825,8.26388 0.367387,10.368898 0.820134,7.117366 2.648852,11.786383 6.443227,16.45062 1.056152,1.298275 3.590602,3.799255 3.850694,3.799842 0.112565,2.5e-4 0.968446,-0.773184 1.901957,-1.71875 z"
     id="shield-middle" />
</svg>
